<svg width="568" height="501" viewBox="0 0 568 501" fill="none" xmlns="http://www.w3.org/2000/svg"><path d="M123.121 33.6637C188.241 82.5526 258.281 181.681 284 234.873c25.719-53.192 95.759-152.3204 160.879-201.2093C491.866-1.61183 568-28.9064 568 57.9464 568 75.2916 558.055 203.659 552.222 224.501c-20.275 72.453-94.155 90.933-159.875 79.748C507.222 323.8 536.444 388.56 473.333 453.32c-119.86 122.992-172.272-30.859-185.702-70.281C285.169 375.812 284.017 372.431 284 375.306 283.983 372.431 282.831 375.812 280.369 383.039c-13.43 39.422-65.842 193.273-185.7023 70.281C31.5556 388.56 60.7778 323.8 175.653 304.249 109.933 315.434 36.0535 296.954 15.7778 224.501 9.94525 203.659.0 75.2916.0 57.9464.0-28.9064 76.1345-1.61183 123.121 33.6637z" fill="#000"/></svg>