<svg width="16" height="16" viewBox="0 0 4.2333332 4.2333335" id="svg1468" xmlns="http://www.w3.org/2000/svg"><title id="title2230">Codeberg logo special version</title><g style="opacity:1" id="layer1" transform="translate(-44.867463,-75.990641)"><g id="g1542-5-7-2" style="opacity:1" transform="matrix(0.62731857,0,0,0.30231784,25.415003,63.342477)"/><path id="rect60043" style="fill-opacity:1;stroke:none;stroke-width:.0660874;paint-order:markers fill stroke;stop-color:#000000" d="m46.983886 76.122471c-1.172544.0-2.116423.944367-2.116423 2.116911-56e-6.397554.112002.787589.323326 1.124632l1.764533-2.281439c.01275-.01632.04434-.01632.05708.0l.736954.952848h-.527804l.01143.04204h.549083l.155695.200846h-.648209l.01818.06591h.680903l.137012.176972h-.768612l.02386.08511h.810129l.122481.157769H47.42501l.02906.103797h.939356l.10743.138567h-1.008381l.03218.114695h1.064947l.09912.128189h-1.128265l.03218.114694h1.184832c.211323-.337043.323393-.727078.323326-1.12463 1e-6-1.172544-.944364-2.116911-2.116909-2.116911zm.644552 3.369732.03218.114695h.939339c.03063-.03616.06232-.07645.09055-.114695zm.06799.242882.03166.114695h.628487c.04111-.03504.08566-.07553.125654-.114694zm.06747.242883.03218.114176h.212225c.06271-.03599.120816-.07262.183679-.114176z"/></g></svg>