<svg xmlns="http://www.w3.org/2000/svg" viewBox="0 0 512 512"><path d="M503.5 204.6 502.8 202.8 433.1 21.02C431.7 17.45 429.2 14.43 425.9 12.38 423.5 10.83 420.8 9.865 417.9 9.57 415 9.275 412.2 9.653 409.5 10.68 406.8 11.7 404.4 13.34 402.4 15.46 400.5 17.58 399.1 20.13 398.3 22.9l-47 144H160.8l-47.1-144C112.9 20.13 111.5 17.59 109.6 15.47 107.6 13.35 105.2 11.72 102.5 10.7c-2.64-1.025-5.52-1.405-8.38-1.113C91.26 9.878 88.51 10.83 86.08 12.38c-3.24 2.05-5.75 5.07-7.16 8.64L9.267 202.8 8.543 204.6c-10.027 26.2-11.263 55-3.52 82 7.747 26.9 24.047 50.7 46.447 67.6L51.74 354.4 52.33 354.8 158.3 434.3 210.9 474l32 24.2C246.6 500.1 251.2 502.5 255.9 502.5S265.2 500.1 268.9 498.2l32-24.2 52.6-39.7 106.7-79.9L460.5 354.1c22.4-16.9 38.7-40.6 45.6-67.5C514.7 259.6 513.5 230.8 503.5 204.6z"/></svg>