<svg id="Layer_1" xmlns="http://www.w3.org/2000/svg" viewBox="0 0 57.1 63.8" style="enable-background:new 0 0 57.1 63.8"><g><path d="M53.8 7.1c.7.1 1 .7 1 1.7v21.4c0 .3-.1.6-.2.9-.2.3-.4.5-.7.7C53.6 32 53.3 32 53 32h-.7c-.2.0-.5-.1-.7-.2-.3-.2-.5-.4-.7-.7s-.2-.6-.2-.9V8.8c0-1.1.3-1.7 1-1.7V4.3L42.2 12c.1.1.2.2.2.3l.2.2c.9 1.6 1.3 3.4 1.3 5.6.0 1.7-.3 3.2-.9 4.6-.6 1.4-1.3 2.5-2.1 3.3-.8.8-1.6 1.6-2.4 2.3s-1.6 1.5-2.2 2.2c-.6.8-.9 1.6-.9 2.3.0.8.4 1.6 1.2 2.4.8.8 1.7 1.7 2.8 2.6 1 .8 2 1.7 3.2 2.7 1.1.9 2 2.1 2.7 3.7s1.1 3.2 1.1 5c0 2.4-.6 4.6-1.8 6.6-1.2 1.9-2.8 3.5-4.8 4.6s-4.1 2-6.3 2.6c-2.2.6-4.4.8-6.6.8-1.4.0-2.9-.1-4.3-.3-1.4-.2-2.9-.6-4.3-1.2-1.4-.6-2.7-1.2-3.8-2.1-1.1-.8-2-1.9-2.7-3.2-.7-1.3-1.1-2.7-1.1-4.4.0-1.9.5-3.6 1.6-5.2s2.5-3 4.2-4.1c3.1-1.9 7.9-3 14.3-3.5-1.4-1.9-2.2-3.7-2.2-5.3.0-.9.2-1.9.7-3-.8.1-1.6.2-2.3.2-3.5.0-6.5-1.1-8.9-3.4-2.4-2.3-3.6-5.2-3.6-8.7.0-.3.0-.7.0-1H0L21.6.0h35.5l-3.3 2.5V7.1zM37.2 45c-.7-.6-1.1-.9-1.2-1-.2-.1-.6-.4-1.4-1s-1.2-.9-1.3-1c-.4-.1-1-.2-1.7-.2-1.7.0-3.3.2-4.8.5-1.6.3-3.1.8-4.6 1.4s-2.7 1.6-3.7 2.8c-.9 1.3-1.4 2.8-1.4 4.6.0 1.6.4 3 1.2 4.2.8 1.3 1.9 2.3 3.2 3s2.7 1.2 4.2 1.6 3 .7 4.5.7c3.1.0 5.7-.7 7.9-2.1 2.2-1.4 3.2-3.5 3.2-6.4.0-.6-.1-1.1-.2-1.7-.2-.6-.3-1.1-.5-1.5s-.5-.9-.9-1.5c-.4-.4-.8-.8-1.2-1.2C38.3 46 37.9 45.5 37.2 45zM35.4 27.3c1.2-1.5 1.8-3.3 1.8-5.6.0-1.9-.3-3.9-1-6-.7-2.1-1.7-4-3.2-5.6s-3.2-2.5-5.2-2.5c-2.2.0-3.9.8-5.1 2.4S21 13.5 21 15.7c0 2 .3 4 .9 6 .6 2 1.7 3.8 3.2 5.4 1.5 1.6 3.2 2.4 5.2 2.4C32.4 29.6 34.1 28.8 35.4 27.3z"/></g></svg>