<svg id="Layer_1" xmlns="http://www.w3.org/2000/svg" viewBox="0 0 256 256" style="enable-background:new 0 0 256 256"><style>.st0{fill:#fff}</style><path d="M256 128c0 70.7-57.3 128-128 128S0 198.7.0 128 57.3.0 128 0 256 57.3 256 128z"/><g><path class="st0" d="M86.3 186.2H70.9V79.1h15.4v48.4 58.7z"/><path class="st0" d="M108.9 79.1h41.6c39.6.0 57 28.3 57 53.6.0 27.5-21.5 53.6-56.8 53.6h-41.8C108.9 186.3 108.9 79.1 108.9 79.1zm15.4 93.3h24.5c34.9.0 42.9-26.5 42.9-39.7C191.7 111.2 178 93 148 93h-23.7v79.4z"/><path class="st0" d="M88.7 56.8c0 5.5-4.5 10.1-10.1 10.1s-10.1-4.6-10.1-10.1c0-5.6 4.5-10.1 10.1-10.1C84.2 46.7 88.7 51.3 88.7 56.8z"/></g></svg>