<svg width="24" height="24" viewBox="0 0 24 24" fill="none" xmlns="http://www.w3.org/2000/svg" class="h-4 w-4 text-zinc-400"><path d="M12 13c1.6569.0 3-1.3431 3-3 0-1.65685-1.3431-3-3-3S9 8.34315 9 10c0 1.6569 1.3431 3 3 3z" stroke="currentColor" stroke-width="2" stroke-linecap="round" stroke-linejoin="round"/><path d="M12 2c-2.12173.0-4.15656.84285-5.65685 2.34315C4.84285 5.84344 4 7.87827 4 10c0 1.892.402 3.13 1.5 4.5L12 22l6.5-7.5C19.598 13.13 20 11.892 20 10c0-2.12173-.8429-4.15656-2.3431-5.65685C16.1566 2.84285 14.1217 2 12 2z" stroke="currentColor" stroke-width="2" stroke-linecap="round" stroke-linejoin="round"/></svg>