<svg width="24" height="24" viewBox="0 0 24 24" fill="none" xmlns="http://www.w3.org/2000/svg" class="h-4 w-4"><path d="M5 7c0-.53043.21071-1.03914.58579-1.41421C5.96086 5.21071 6.46957 5 7 5H17c.5304.0 1.0391.21071 1.4142.58579C18.7893 5.96086 19 6.46957 19 7V17C19 17.5304 18.7893 18.0391 18.4142 18.4142S17.5304 19 17 19H7C6.46957 19 5.96086 18.7893 5.58579 18.4142 5.21071 18.0391 5 17.5304 5 17V7z" stroke="currentColor" stroke-width="2" stroke-linecap="round" stroke-linejoin="round"/><path d="M8 12h8M12 8v8" stroke="currentColor" stroke-width="2" stroke-linecap="round" stroke-linejoin="round"/></svg>